<?xml version="1.0" encoding="utf-8"?>
<!-- Generator: Adobe Illustrator 20.0.0, SVG Export Plug-In . SVG Version: 6.00 Build 0)  -->
<svg version="1.1" id="Ebene_1" xmlns="http://www.w3.org/2000/svg" xmlns:xlink="http://www.w3.org/1999/xlink" x="0px" y="0px"
	 viewBox="0 0 410 50" style="enable-background:new 0 0 410 50;" xml:space="preserve">
<style type="text/css">
	.st0{enable-background:new    ;}
	.st1{fill:#FFFFFF;}
	.st2{fill:#E30613;}
</style>
<g>
	<g class="st0">
		<path class="st1" d="M222.2,3.5h3.2v0.6h-2.6v2.3h2.4V7h-2.4v2.5h2.7v0.6h-3.3V3.5z"/>
		<path class="st1" d="M227.4,4h-0.6V3.2h0.6V4z M226.8,5.3h0.6v4.8h-0.6V5.3z"/>
		<path class="st1" d="M232.7,10.1h-0.6V9.3h0c-0.3,0.6-0.8,0.9-1.5,0.9c-1.3,0-2-1.1-2-2.5c0-1.5,0.6-2.5,2-2.5
			c0.9,0,1.4,0.7,1.5,0.9h0V3h0.6V10.1z M230.7,9.7c1.1,0,1.4-1.1,1.4-2s-0.4-2-1.4-2c-1.1,0-1.4,1.1-1.4,2S229.6,9.7,230.7,9.7z"/>
		<path class="st1" d="M238,9.7c0,1.3-0.6,2.4-2.2,2.4c-0.6,0-1.2-0.2-1.4-0.3l0-0.6c0.4,0.2,0.9,0.3,1.4,0.3c1.5,0,1.7-1.1,1.7-2.5
			h0c-0.3,0.7-0.8,0.9-1.5,0.9c-1.5,0-2-1.3-2-2.4c0-1.5,0.6-2.5,2-2.5c0.6,0,1.1,0.1,1.5,0.7h0V5.3h0.6V9.7z M235.9,9.6
			c1.1,0,1.5-1,1.5-1.9c0-1.2-0.3-2-1.4-2c-1.1,0-1.4,1.1-1.4,2C234.5,8.6,234.9,9.6,235.9,9.6z"/>
		<path class="st1" d="M242.6,9.9c-0.4,0.2-0.9,0.3-1.4,0.3c-1.6,0-2.2-1.1-2.2-2.5c0-1.5,0.8-2.5,2-2.5c1.4,0,1.9,1.1,1.9,2.4v0.3
			h-3.3c0,1,0.5,1.8,1.6,1.8c0.4,0,1.1-0.2,1.3-0.4V9.9z M242.3,7.3c0-0.8-0.3-1.7-1.2-1.7c-0.9,0-1.4,0.9-1.4,1.7H242.3z"/>
		<path class="st1" d="M244.1,6.4c0-0.4,0-0.7,0-1.1h0.6v0.9h0c0.2-0.4,0.6-1,1.6-1c1.2,0,1.6,0.8,1.6,1.8v3.1h-0.6V7.2
			c0-0.9-0.3-1.5-1.1-1.5c-1.1,0-1.4,1-1.4,1.7v2.7h-0.6V6.4z"/>
		<path class="st1" d="M251.2,5.2c1.6,0,2.2,1.2,2.2,2.5c0,1.3-0.7,2.5-2.2,2.5c-1.6,0-2.2-1.2-2.2-2.5
			C248.9,6.4,249.6,5.2,251.2,5.2z M251.2,9.7c1,0,1.6-0.9,1.6-2s-0.6-2-1.6-2c-1,0-1.6,0.9-1.6,2S250.2,9.7,251.2,9.7z M250,3.7
			h0.7v0.8H250V3.7z M251.6,3.7h0.7v0.8h-0.7V3.7z"/>
		<path class="st1" d="M254.2,9.4c0.4,0.2,0.8,0.3,1.3,0.3c0.6,0,1.1-0.3,1.1-0.9c0-1.1-2.3-1-2.3-2.4c0-1,0.8-1.3,1.6-1.3
			c0.3,0,0.8,0.1,1.2,0.2l-0.1,0.5c-0.3-0.1-0.7-0.2-1.1-0.2c-0.6,0-1,0.2-1,0.8c0,0.9,2.4,0.8,2.4,2.4c0,1-0.9,1.4-1.7,1.4
			c-0.5,0-0.9-0.1-1.3-0.2L254.2,9.4z"/>
		<path class="st1" d="M257.8,9.4c0.4,0.2,0.8,0.3,1.3,0.3c0.6,0,1.1-0.3,1.1-0.9c0-1.1-2.3-1-2.3-2.4c0-1,0.8-1.3,1.6-1.3
			c0.3,0,0.8,0.1,1.2,0.2l-0.1,0.5c-0.3-0.1-0.7-0.2-1.1-0.2c-0.6,0-1,0.2-1,0.8c0,0.9,2.4,0.8,2.4,2.4c0,1-1,1.4-1.7,1.4
			c-0.5,0-0.9-0.1-1.3-0.2L257.8,9.4z"/>
		<path class="st1" d="M262.4,4h-0.6V3.2h0.6V4z M261.9,5.3h0.6v4.8h-0.6V5.3z"/>
		<path class="st1" d="M263.6,9.4c0.4,0.2,0.8,0.3,1.3,0.3c0.6,0,1.1-0.3,1.1-0.9c0-1.1-2.3-1-2.3-2.4c0-1,0.8-1.3,1.6-1.3
			c0.3,0,0.8,0.1,1.2,0.2l-0.1,0.5c-0.3-0.1-0.7-0.2-1.1-0.2c-0.6,0-1,0.2-1,0.8c0,0.9,2.4,0.8,2.4,2.4c0,1-0.9,1.4-1.7,1.4
			c-0.5,0-0.9-0.1-1.3-0.2L263.6,9.4z"/>
		<path class="st1" d="M270.7,5.9c-0.3-0.1-0.7-0.2-1-0.2c-1.2,0-1.8,0.8-1.8,2c0,1.1,0.7,2,1.7,2c0.4,0,0.7-0.1,1.1-0.2l0.1,0.6
			c-0.4,0.1-0.8,0.2-1.2,0.2c-1.5,0-2.3-1.2-2.3-2.5c0-1.5,1-2.5,2.4-2.5c0.6,0,1,0.1,1.2,0.2L270.7,5.9z"/>
		<path class="st1" d="M271.8,3h0.6v3.1h0c0.3-0.5,0.8-0.9,1.5-0.9c1.3,0,1.6,0.9,1.6,2v2.9h-0.6V7.2c0-0.8-0.2-1.5-1.1-1.5
			c-1.1,0-1.4,1-1.4,1.8v2.6h-0.6V3z"/>
		<path class="st1" d="M280.2,9.9c-0.4,0.2-0.9,0.3-1.4,0.3c-1.6,0-2.2-1.1-2.2-2.5c0-1.5,0.8-2.5,2-2.5c1.4,0,1.9,1.1,1.9,2.4v0.3
			h-3.3c0,1,0.5,1.8,1.6,1.8c0.4,0,1.1-0.2,1.3-0.4V9.9z M279.9,7.3c0-0.8-0.3-1.7-1.2-1.7c-0.9,0-1.4,0.9-1.4,1.7H279.9z"/>
		<path class="st1" d="M281.3,9.4c0.4,0.2,0.8,0.3,1.3,0.3c0.6,0,1.1-0.3,1.1-0.9c0-1.1-2.3-1-2.3-2.4c0-1,0.8-1.3,1.6-1.3
			c0.3,0,0.8,0.1,1.2,0.2L284,5.9c-0.3-0.1-0.7-0.2-1.1-0.2c-0.6,0-1,0.2-1,0.8c0,0.9,2.4,0.8,2.4,2.4c0,1-0.9,1.4-1.7,1.4
			c-0.5,0-0.9-0.1-1.3-0.2L281.3,9.4z"/>
		<path class="st1" d="M288,3.5h1.6c2.4,0,3.3,1.4,3.3,3.3c0,2.4-1.6,3.3-3.8,3.3H288V3.5z M288.6,9.5h0.5c1.9,0,3.1-0.8,3.1-2.8
			c0-2-1.2-2.7-2.7-2.7h-0.9V9.5z"/>
		<path class="st1" d="M297.5,9.9c-0.4,0.2-0.9,0.3-1.4,0.3c-1.6,0-2.2-1.1-2.2-2.5c0-1.5,0.8-2.5,2-2.5c1.4,0,1.9,1.1,1.9,2.4v0.3
			h-3.3c0,1,0.5,1.8,1.6,1.8c0.4,0,1.1-0.2,1.3-0.4V9.9z M297.2,7.3c0-0.8-0.3-1.7-1.2-1.7c-0.9,0-1.4,0.9-1.4,1.7H297.2z"/>
		<path class="st1" d="M298.9,5.3h0.6l0,0.9h0c0.1-0.3,0.5-1,1.5-1c1.4,0,2,1.1,2,2.5c0,1.4-0.7,2.5-2,2.5c-0.8,0-1.2-0.3-1.5-0.9h0
			v2.8h-0.6V5.3z M300.9,5.7c-1.1,0-1.4,1.1-1.4,2s0.4,2,1.4,2c1.1,0,1.4-1.1,1.4-2S302,5.7,300.9,5.7z"/>
		<path class="st1" d="M306.9,9.3L306.9,9.3c-0.3,0.6-1,0.9-1.5,0.9c-1.4,0-1.6-0.9-1.6-1.4c0-1.6,1.7-1.7,3-1.7h0.1V6.9
			c0-0.8-0.3-1.2-1.1-1.2c-0.5,0-1,0.1-1.4,0.4V5.5c0.4-0.2,1-0.3,1.4-0.3c1.2,0,1.7,0.5,1.7,1.8v2.1c0,0.4,0,0.7,0,1h-0.6V9.3z
			 M306.9,7.7h-0.2c-1,0-2.2,0.1-2.2,1.2c0,0.6,0.5,0.9,1,0.9c1.4,0,1.4-1.2,1.4-1.7V7.7z"/>
		<path class="st1" d="M308.9,6.4c0-0.5,0-0.7,0-1.1h0.6v0.9h0c0.2-0.5,0.6-1,1.2-1c0.1,0,0.3,0,0.4,0.1v0.6c-0.1,0-0.3-0.1-0.4-0.1
			c-0.9,0-1.2,1.1-1.2,1.9v2.4h-0.6V6.4z"/>
		<path class="st1" d="M314.1,5.8H313v3.1c0,0.4,0.2,0.8,0.6,0.8c0.2,0,0.4,0,0.5-0.1l0,0.5c-0.1,0.1-0.4,0.1-0.7,0.1
			c-1.1,0-1.1-0.7-1.1-1.6V5.8h-0.9V5.3h0.9V4.1l0.6-0.2v1.4h1.1V5.8z"/>
		<path class="st1" d="M318.3,9.9c-0.4,0.2-1,0.3-1.4,0.3c-1.6,0-2.2-1.1-2.2-2.5c0-1.5,0.8-2.5,2-2.5c1.4,0,1.9,1.1,1.9,2.4v0.3
			h-3.3c0,1,0.5,1.8,1.6,1.8c0.4,0,1.1-0.2,1.3-0.4V9.9z M318.1,7.3c0-0.8-0.3-1.7-1.2-1.7c-0.9,0-1.4,0.9-1.4,1.7H318.1z"/>
		<path class="st1" d="M325.6,10.1V6.9c0-0.7-0.3-1.2-1-1.2c-0.6,0-1.3,0.6-1.3,1.7v2.7h-0.6V6.9c0-0.7-0.3-1.2-1-1.2
			c-0.6,0-1.3,0.6-1.3,1.7v2.7h-0.6V6.4c0-0.4,0-0.7,0-1.1h0.6v0.8l0,0c0.2-0.3,0.5-0.9,1.5-0.9c0.4,0,1.1,0.2,1.3,1h0
			c0.2-0.6,0.8-1,1.5-1c1,0,1.5,0.7,1.5,1.6v3.3H325.6z"/>
		<path class="st1" d="M330.9,9.9c-0.4,0.2-0.9,0.3-1.4,0.3c-1.6,0-2.2-1.1-2.2-2.5c0-1.5,0.8-2.5,2-2.5c1.4,0,1.9,1.1,1.9,2.4v0.3
			H328c0,1,0.5,1.8,1.6,1.8c0.4,0,1.1-0.2,1.3-0.4V9.9z M330.6,7.3c0-0.8-0.3-1.7-1.2-1.7c-0.9,0-1.4,0.9-1.4,1.7H330.6z"/>
		<path class="st1" d="M332.4,6.4c0-0.4,0-0.7,0-1.1h0.6v0.9h0c0.2-0.4,0.6-1,1.6-1c1.2,0,1.6,0.8,1.6,1.8v3.1h-0.6V7.2
			c0-0.9-0.3-1.5-1.1-1.5c-1.1,0-1.4,1-1.4,1.7v2.7h-0.6V6.4z"/>
		<path class="st1" d="M339.7,5.8h-1.1v3.1c0,0.4,0.2,0.8,0.6,0.8c0.2,0,0.4,0,0.5-0.1l0,0.5c-0.1,0.1-0.4,0.1-0.7,0.1
			c-1.1,0-1.1-0.7-1.1-1.6V5.8H337V5.3h0.9V4.1l0.6-0.2v1.4h1.1V5.8z"/>
		<path class="st1" d="M343.7,5.8h-1V5.3h1V4.9c0-1,0-2,1.3-2c0.2,0,0.4,0,0.6,0.1l0,0.5c-0.1-0.1-0.3-0.1-0.5-0.1
			c-0.8,0-0.7,0.9-0.7,1.4v0.4h1.1v0.5h-1.1v4.3h-0.6V5.8z"/>
		<path class="st1" d="M350.2,8.9c0,0.4,0,0.7,0,1.1h-0.6V9.2h0c-0.2,0.4-0.6,1-1.6,1c-1.2,0-1.6-0.8-1.6-1.8V5.3h0.6v2.9
			c0,0.9,0.3,1.5,1.1,1.5c1.1,0,1.4-0.9,1.4-1.7V5.3h0.6V8.9z M347.2,3.7h0.7v0.8h-0.7V3.7z M348.8,3.7h0.7v0.8h-0.7V3.7z"/>
		<path class="st1" d="M351.7,6.4c0-0.5,0-0.7,0-1.1h0.6v0.9h0c0.2-0.5,0.6-1,1.2-1c0.1,0,0.3,0,0.4,0.1v0.6c-0.1,0-0.3-0.1-0.4-0.1
			c-0.9,0-1.2,1.1-1.2,1.9v2.4h-0.6V6.4z"/>
		<path class="st1" d="M359.9,10.1h-0.7l-2.4-6.6h0.7l2.1,5.9l2.2-5.9h0.6L359.9,10.1z"/>
		<path class="st1" d="M365.9,9.9c-0.4,0.2-0.9,0.3-1.4,0.3c-1.6,0-2.2-1.1-2.2-2.5c0-1.5,0.8-2.5,2-2.5c1.4,0,1.9,1.1,1.9,2.4v0.3
			H363c0,1,0.5,1.8,1.6,1.8c0.4,0,1.1-0.2,1.3-0.4V9.9z M365.6,7.3c0-0.8-0.3-1.7-1.2-1.7c-0.9,0-1.4,0.9-1.4,1.7H365.6z"/>
		<path class="st1" d="M367.4,6.4c0-0.5,0-0.7,0-1.1h0.6v0.9h0c0.2-0.5,0.6-1,1.2-1c0.1,0,0.3,0,0.4,0.1v0.6c-0.1,0-0.3-0.1-0.4-0.1
			c-0.9,0-1.2,1.1-1.2,1.9v2.4h-0.6V6.4z"/>
		<path class="st1" d="M372.6,5.8h-1.1v3.1c0,0.4,0.2,0.8,0.6,0.8c0.2,0,0.4,0,0.5-0.1l0,0.5c-0.1,0.1-0.4,0.1-0.7,0.1
			c-1.1,0-1.1-0.7-1.1-1.6V5.8h-0.9V5.3h0.9V4.1l0.6-0.2v1.4h1.1V5.8z"/>
		<path class="st1" d="M376.8,9.9c-0.4,0.2-0.9,0.3-1.4,0.3c-1.6,0-2.2-1.1-2.2-2.5c0-1.5,0.8-2.5,2-2.5c1.4,0,1.9,1.1,1.9,2.4v0.3
			h-3.3c0,1,0.5,1.8,1.6,1.8c0.4,0,1.1-0.2,1.3-0.4V9.9z M376.5,7.3c0-0.8-0.3-1.7-1.2-1.7c-0.9,0-1.4,0.9-1.4,1.7H376.5z"/>
		<path class="st1" d="M378.9,4h-0.6V3.2h0.6V4z M378.3,5.3h0.6v4.8h-0.6V5.3z"/>
		<path class="st1" d="M384.2,10.1h-0.6V9.3h0c-0.3,0.6-0.8,0.9-1.5,0.9c-1.3,0-2-1.1-2-2.5c0-1.5,0.6-2.5,2-2.5
			c0.9,0,1.4,0.7,1.5,0.9h0V3h0.6V10.1z M382.2,9.7c1.1,0,1.4-1.1,1.4-2s-0.4-2-1.4-2c-1.1,0-1.4,1.1-1.4,2S381.1,9.7,382.2,9.7z"/>
		<path class="st1" d="M386.2,4h-0.6V3.2h0.6V4z M385.6,5.3h0.6v4.8h-0.6V5.3z"/>
		<path class="st1" d="M391.5,9.7c0,1.3-0.6,2.4-2.2,2.4c-0.6,0-1.2-0.2-1.4-0.3l0-0.6c0.4,0.2,0.9,0.3,1.4,0.3
			c1.5,0,1.7-1.1,1.7-2.5h0c-0.3,0.7-0.8,0.9-1.5,0.9c-1.5,0-2-1.3-2-2.4c0-1.5,0.6-2.5,2-2.5c0.6,0,1.1,0.1,1.5,0.7h0V5.3h0.6V9.7z
			 M389.5,9.6c1.1,0,1.5-1,1.5-1.9c0-1.2-0.3-2-1.4-2c-1.1,0-1.4,1.1-1.4,2C388.1,8.6,388.5,9.6,389.5,9.6z"/>
		<path class="st1" d="M396.7,8.9c0,0.4,0,0.7,0,1.1h-0.6V9.2h0c-0.2,0.4-0.6,1-1.6,1c-1.2,0-1.6-0.8-1.6-1.8V5.3h0.6v2.9
			c0,0.9,0.3,1.5,1.1,1.5c1.1,0,1.4-0.9,1.4-1.7V5.3h0.6V8.9z"/>
		<path class="st1" d="M398.2,6.4c0-0.4,0-0.7,0-1.1h0.6v0.9h0c0.2-0.4,0.6-1,1.6-1c1.2,0,1.6,0.8,1.6,1.8v3.1h-0.6V7.2
			c0-0.9-0.3-1.5-1.1-1.5c-1.1,0-1.4,1-1.4,1.7v2.7h-0.6V6.4z"/>
		<path class="st1" d="M407.2,9.7c0,1.3-0.6,2.4-2.2,2.4c-0.6,0-1.2-0.2-1.4-0.3l0-0.6c0.4,0.2,0.9,0.3,1.4,0.3
			c1.5,0,1.7-1.1,1.7-2.5h0c-0.3,0.7-0.8,0.9-1.5,0.9c-1.5,0-2-1.3-2-2.4c0-1.5,0.6-2.5,2-2.5c0.6,0,1.1,0.1,1.5,0.7h0V5.3h0.6V9.7z
			 M405.2,9.6c1.1,0,1.5-1,1.5-1.9c0-1.2-0.3-2-1.4-2c-1.1,0-1.4,1.1-1.4,2C403.8,8.6,404.1,9.6,405.2,9.6z"/>
		<path class="st1" d="M408.9,9.3h0.8l-0.7,2.1h-0.6L408.9,9.3z"/>
	</g>
	<g class="st0">
		<path class="st1" d="M222.2,16.5h1.6c1.1,0,2.1,0.4,2.1,1.6c0,0.8-0.4,1.3-1.2,1.5v0c0.8,0.2,1.4,0.7,1.4,1.6
			c0,1.4-1.2,1.9-2.5,1.9h-1.3V16.5z M222.8,22.5h0.7c0.9,0,1.9-0.2,1.9-1.3c0-1.2-1-1.3-2-1.3h-0.6V22.5z M222.8,19.3h0.7
			c0.7,0,1.6-0.2,1.6-1.2c0-0.9-0.9-1.1-1.4-1.1h-0.9V19.3z"/>
		<path class="st1" d="M230.6,22.9c-0.4,0.2-0.9,0.3-1.4,0.3c-1.6,0-2.2-1.1-2.2-2.5c0-1.5,0.8-2.5,2-2.5c1.4,0,1.9,1.1,1.9,2.4v0.3
			h-3.3c0,1,0.5,1.8,1.6,1.8c0.4,0,1.1-0.2,1.3-0.4V22.9z M230.3,20.3c0-0.8-0.3-1.7-1.2-1.7c-0.9,0-1.4,0.9-1.4,1.7H230.3z"/>
		<path class="st1" d="M233.7,23H233l-1.6-4.8h0.6l1.3,4.1h0l1.4-4.1h0.6L233.7,23z"/>
		<path class="st1" d="M238.1,18.1c1.6,0,2.2,1.2,2.2,2.5c0,1.3-0.7,2.5-2.2,2.5c-1.6,0-2.2-1.2-2.2-2.5
			C235.9,19.3,236.6,18.1,238.1,18.1z M238.1,22.6c1,0,1.6-0.9,1.6-2c0-1.1-0.6-2-1.6-2c-1,0-1.6,0.9-1.6,2
			C236.5,21.8,237.1,22.6,238.1,22.6z M237,16.7h0.7v0.8H237V16.7z M238.6,16.7h0.7v0.8h-0.7V16.7z"/>
		<path class="st1" d="M241.5,16h0.6V23h-0.6V16z"/>
		<path class="st1" d="M243.6,16h0.6v4.2l2.1-2h0.8l-2.3,2.1l2.6,2.7h-0.8l-2.4-2.5V23h-0.6V16z"/>
		<path class="st1" d="M251.5,22.9c-0.4,0.2-1,0.3-1.4,0.3c-1.6,0-2.2-1.1-2.2-2.5c0-1.5,0.8-2.5,2-2.5c1.4,0,1.9,1.1,1.9,2.4v0.3
			h-3.3c0,1,0.5,1.8,1.6,1.8c0.4,0,1.1-0.2,1.3-0.4V22.9z M251.2,20.3c0-0.8-0.3-1.7-1.2-1.7c-0.9,0-1.4,0.9-1.4,1.7H251.2z"/>
		<path class="st1" d="M253,19.3c0-0.5,0-0.7,0-1.1h0.6v0.9h0c0.2-0.5,0.6-1,1.2-1c0.1,0,0.3,0,0.4,0.1v0.6c-0.1,0-0.3-0.1-0.4-0.1
			c-0.9,0-1.2,1.1-1.2,1.9V23H253V19.3z"/>
		<path class="st1" d="M259.8,21.9c0,0.4,0,0.7,0,1.1h-0.6v-0.9h0c-0.2,0.4-0.6,1-1.6,1c-1.2,0-1.6-0.8-1.6-1.8v-3.1h0.6v2.9
			c0,0.9,0.3,1.5,1.1,1.5c1.1,0,1.4-0.9,1.4-1.7v-2.7h0.6V21.9z"/>
		<path class="st1" d="M261.3,19.4c0-0.4,0-0.7,0-1.1h0.6v0.9h0c0.2-0.4,0.6-1,1.6-1c1.2,0,1.6,0.8,1.6,1.8V23h-0.6v-2.9
			c0-0.9-0.3-1.5-1.1-1.5c-1.1,0-1.4,1-1.4,1.7V23h-0.6V19.4z"/>
		<path class="st1" d="M270.3,22.6c0,1.3-0.6,2.4-2.2,2.4c-0.6,0-1.2-0.2-1.4-0.3l0-0.6c0.4,0.2,0.9,0.3,1.4,0.3
			c1.5,0,1.7-1.1,1.7-2.5h0c-0.3,0.7-0.8,0.9-1.5,0.9c-1.5,0-2-1.3-2-2.4c0-1.5,0.6-2.5,2-2.5c0.6,0,1.1,0.1,1.5,0.7h0v-0.5h0.6
			V22.6z M268.3,22.5c1.1,0,1.5-1,1.5-1.9c0-1.2-0.3-2-1.4-2c-1.1,0-1.4,1.1-1.4,2C266.9,21.6,267.3,22.5,268.3,22.5z"/>
		<path class="st1" d="M271.4,22.3c0.4,0.2,0.8,0.3,1.3,0.3c0.6,0,1.1-0.3,1.1-0.9c0-1.1-2.3-1-2.3-2.4c0-1,0.8-1.3,1.6-1.3
			c0.3,0,0.8,0.1,1.2,0.2l-0.1,0.5c-0.3-0.1-0.7-0.2-1.1-0.2c-0.6,0-1,0.2-1,0.8c0,0.9,2.4,0.8,2.4,2.4c0,1-1,1.4-1.7,1.4
			c-0.5,0-0.9-0.1-1.3-0.2L271.4,22.3z"/>
		<path class="st1" d="M275.1,22.3c0.4,0.2,0.8,0.3,1.3,0.3c0.6,0,1.1-0.3,1.1-0.9c0-1.1-2.3-1-2.3-2.4c0-1,0.8-1.3,1.6-1.3
			c0.3,0,0.8,0.1,1.2,0.2l-0.1,0.5c-0.3-0.1-0.7-0.2-1.1-0.2c-0.6,0-1,0.2-1,0.8c0,0.9,2.4,0.8,2.4,2.4c0,1-1,1.4-1.7,1.4
			c-0.5,0-0.9-0.1-1.3-0.2L275.1,22.3z"/>
		<path class="st1" d="M282.2,18.9c-0.3-0.1-0.7-0.2-1-0.2c-1.2,0-1.8,0.8-1.8,2c0,1.1,0.7,2,1.7,2c0.4,0,0.7-0.1,1.1-0.2l0.1,0.6
			c-0.4,0.1-0.8,0.2-1.2,0.2c-1.5,0-2.3-1.2-2.3-2.5c0-1.5,1-2.5,2.4-2.5c0.6,0,1,0.1,1.2,0.2L282.2,18.9z"/>
		<path class="st1" d="M283.3,16h0.6v3.1h0c0.3-0.5,0.8-0.9,1.5-0.9c1.3,0,1.6,0.9,1.6,2V23h-0.6v-2.9c0-0.8-0.2-1.5-1.1-1.5
			c-1.1,0-1.4,1-1.4,1.8V23h-0.6V16z"/>
		<path class="st1" d="M292.2,21.9c0,0.4,0,0.7,0,1.1h-0.6v-0.9h0c-0.2,0.4-0.6,1-1.6,1c-1.2,0-1.6-0.8-1.6-1.8v-3.1h0.6v2.9
			c0,0.9,0.3,1.5,1.1,1.5c1.1,0,1.4-0.9,1.4-1.7v-2.7h0.6V21.9z"/>
		<path class="st1" d="M295.8,18.8h-1.1v3.1c0,0.4,0.2,0.8,0.6,0.8c0.2,0,0.4,0,0.5-0.1l0,0.5c-0.1,0.1-0.4,0.1-0.7,0.1
			c-1.1,0-1.1-0.7-1.1-1.6v-2.8h-0.9v-0.5h0.9v-1.2l0.6-0.2v1.4h1.1V18.8z"/>
		<path class="st1" d="M296.4,22.5l2.9-3.8h-2.8v-0.5h3.5v0.5l-2.9,3.8h2.9V23h-3.6V22.5z"/>
		<path class="st1" d="M307.4,21.9c0,0.4,0,0.7,0,1.1h-0.6v-0.9h0c-0.2,0.4-0.6,1-1.6,1c-1.2,0-1.6-0.8-1.6-1.8v-3.1h0.6v2.9
			c0,0.9,0.3,1.5,1.1,1.5c1.1,0,1.4-0.9,1.4-1.7v-2.7h0.6V21.9z"/>
		<path class="st1" d="M308.9,19.4c0-0.4,0-0.7,0-1.1h0.6v0.9h0c0.2-0.4,0.6-1,1.6-1c1.2,0,1.6,0.8,1.6,1.8V23H312v-2.9
			c0-0.9-0.3-1.5-1.1-1.5c-1.1,0-1.4,1-1.4,1.7V23h-0.6V19.4z"/>
		<path class="st1" d="M317.9,23h-0.6v-0.8h0c-0.3,0.6-0.8,0.9-1.5,0.9c-1.3,0-2-1.1-2-2.5c0-1.5,0.6-2.5,2-2.5
			c0.9,0,1.4,0.7,1.5,0.9h0V16h0.6V23z M315.9,22.6c1.1,0,1.4-1.1,1.4-2s-0.4-2-1.4-2c-1.1,0-1.4,1.1-1.4,2S314.7,22.6,315.9,22.6z"
			/>
		<path class="st1" d="M321.8,22.2c0.4,0.2,0.8,0.4,1.4,0.4c0.8,0,1.5-0.4,1.5-1.3c0-1.3-3-1.4-3-3.2c0-1.1,0.9-1.7,2.1-1.7
			c0.3,0,0.8,0,1.3,0.2l-0.1,0.6c-0.3-0.2-0.8-0.2-1.2-0.2c-0.7,0-1.4,0.3-1.4,1.1c0,1.3,3,1.3,3,3.2c0,1.3-1.1,1.9-2.2,1.9
			c-0.6,0-1.1-0.1-1.5-0.3L321.8,22.2z"/>
		<path class="st1" d="M326.6,18.2h0.6l0,0.9h0c0.2-0.3,0.5-1,1.5-1c1.4,0,2,1.1,2,2.5c0,1.4-0.7,2.5-2,2.5c-0.8,0-1.2-0.3-1.5-0.9
			h0V25h-0.6V18.2z M328.6,18.6c-1.1,0-1.4,1.1-1.4,2s0.4,2,1.4,2c1.1,0,1.4-1.1,1.4-2S329.7,18.6,328.6,18.6z"/>
		<path class="st1" d="M333.7,18.1c1.6,0,2.2,1.2,2.2,2.5c0,1.3-0.7,2.5-2.2,2.5c-1.6,0-2.2-1.2-2.2-2.5
			C331.5,19.3,332.2,18.1,333.7,18.1z M333.7,22.6c1,0,1.6-0.9,1.6-2c0-1.1-0.6-2-1.6-2c-1,0-1.6,0.9-1.6,2
			C332.1,21.8,332.7,22.6,333.7,22.6z"/>
		<path class="st1" d="M337.1,19.3c0-0.5,0-0.7,0-1.1h0.6v0.9h0c0.2-0.5,0.6-1,1.2-1c0.1,0,0.3,0,0.4,0.1v0.6
			c-0.1,0-0.3-0.1-0.4-0.1c-0.9,0-1.2,1.1-1.2,1.9V23h-0.6V19.3z"/>
		<path class="st1" d="M342.3,18.8h-1.1v3.1c0,0.4,0.2,0.8,0.6,0.8c0.2,0,0.4,0,0.5-0.1l0,0.5c-0.1,0.1-0.4,0.1-0.7,0.1
			c-1.1,0-1.1-0.7-1.1-1.6v-2.8h-0.9v-0.5h0.9v-1.2l0.6-0.2v1.4h1.1V18.8z"/>
		<path class="st1" d="M348.4,23h-0.7l-2.4-6.6h0.7l2.1,5.9l2.2-5.9h0.6L348.4,23z"/>
		<path class="st1" d="M351.7,16.5h1.6c1.1,0,2.1,0.4,2.1,1.6c0,0.8-0.4,1.3-1.2,1.5v0c0.8,0.2,1.4,0.7,1.4,1.6
			c0,1.4-1.2,1.9-2.5,1.9h-1.3V16.5z M352.4,22.5h0.7c0.9,0,1.9-0.2,1.9-1.3c0-1.2-1-1.3-2-1.3h-0.6V22.5z M352.4,19.3h0.7
			c0.7,0,1.6-0.2,1.6-1.2c0-0.9-0.9-1.1-1.4-1.1h-0.9V19.3z"/>
		<path class="st1" d="M356.8,22.2c0.4,0.2,0.8,0.4,1.4,0.4c0.8,0,1.5-0.4,1.5-1.3c0-1.3-3-1.4-3-3.2c0-1.1,0.9-1.7,2.1-1.7
			c0.3,0,0.8,0,1.3,0.2l-0.1,0.6c-0.3-0.2-0.8-0.2-1.2-0.2c-0.7,0-1.4,0.3-1.4,1.1c0,1.3,3,1.3,3,3.2c0,1.3-1.1,1.9-2.2,1.9
			c-0.6,0-1.1-0.1-1.5-0.3L356.8,22.2z"/>
	</g>
	<g class="st0">
		<path class="st1" d="M225.7,30.6c-0.4-0.2-0.9-0.3-1.3-0.3c-0.5,0-1,0.2-1,0.9c0,1.1,2.9,0.7,2.9,2.9c0,1.4-1.1,2-2.5,2
			c-0.7,0-1-0.1-1.7-0.3l0.1-1.2c0.5,0.2,1,0.4,1.5,0.4c0.5,0,1.2-0.3,1.2-0.8c0-1.3-2.9-0.7-2.9-2.9c0-1.5,1.1-2,2.3-2
			c0.6,0,1.1,0.1,1.6,0.2L225.7,30.6z"/>
		<path class="st1" d="M230.4,32.2c-0.2-0.1-0.5-0.2-0.9-0.2c-0.8,0-1.3,0.6-1.3,1.5c0,0.9,0.4,1.6,1.3,1.6c0.4,0,0.8-0.1,1-0.2
			l0.1,1c-0.4,0.1-0.7,0.2-1.3,0.2c-1.6,0-2.4-1.1-2.4-2.6c0-1.4,0.8-2.5,2.3-2.5c0.5,0,0.9,0.1,1.2,0.2L230.4,32.2z"/>
		<path class="st1" d="M231.5,29h1.3v2.9h0c0.3-0.5,0.9-0.8,1.5-0.8c1.1,0,1.6,0.8,1.6,1.9V36h-1.3v-2.6c0-0.6,0-1.4-0.8-1.4
			c-0.9,0-1.1,1-1.1,1.6V36h-1.3V29z"/>
		<path class="st1" d="M236.7,31.2h1.3l1.1,3.6h0l1-3.6h1.5l1.1,3.6h0l1-3.6h1.2l-1.5,4.8h-1.5l-1.1-3.7h0l-1,3.7h-1.4L236.7,31.2z"
			/>
		<path class="st1" d="M249.4,35.7c-0.5,0.3-1,0.4-1.7,0.4c-1.6,0-2.5-0.9-2.5-2.5c0-1.4,0.7-2.6,2.2-2.6c1.8,0,2.3,1.2,2.3,2.9
			h-3.3c0.1,0.8,0.6,1.2,1.4,1.2c0.6,0,1.1-0.2,1.6-0.5V35.7z M248.6,33.1c0-0.6-0.3-1.1-1-1.1s-1.1,0.5-1.1,1.1H248.6z"/>
		<path class="st1" d="M250.8,29.1h1.3v1.2h-1.3V29.1z M250.8,31.2h1.3V36h-1.3V31.2z"/>
		<path class="st1" d="M253.2,31.2h3.8v1l-2.4,2.8h2.5v1h-4v-1l2.5-2.8h-2.4V31.2z"/>
		<path class="st1" d="M262,35.7c-0.5,0.3-1,0.4-1.7,0.4c-1.6,0-2.5-0.9-2.5-2.5c0-1.4,0.7-2.6,2.2-2.6c1.8,0,2.3,1.2,2.3,2.9H259
			c0.1,0.8,0.6,1.2,1.4,1.2c0.6,0,1.1-0.2,1.6-0.5V35.7z M261.1,33.1c0-0.6-0.3-1.1-1-1.1c-0.7,0-1.1,0.5-1.1,1.1H261.1z"/>
		<path class="st1" d="M263.4,31.2h1.1v1.1h0c0.1-0.5,0.6-1.2,1.3-1.2c0.1,0,0.3,0,0.4,0v1.3c-0.1-0.1-0.3-0.1-0.6-0.1
			c-1,0-1,1.3-1,2V36h-1.3V31.2z"/>
		<path class="st1" d="M271.6,29.4h1.5l2.6,6.6h-1.5l-0.6-1.5H271l-0.6,1.5H269L271.6,29.4z M272.3,30.8L272.3,30.8l-1,2.7h1.9
			L272.3,30.8z"/>
		<path class="st1" d="M276.4,31.2h1.1v1.1h0c0.1-0.5,0.6-1.2,1.3-1.2c0.1,0,0.3,0,0.4,0v1.3c-0.1-0.1-0.3-0.1-0.6-0.1
			c-1,0-1,1.3-1,2V36h-1.3V31.2z"/>
		<path class="st1" d="M280,31.2h1.2v0.7h0c0.4-0.6,1-0.8,1.4-0.8c0.7,0,1.2,0.3,1.4,0.9c0.3-0.6,0.9-0.9,1.5-0.9
			c1.2,0,1.5,0.8,1.5,1.9V36h-1.3v-2.9c0-0.5,0-1.1-0.7-1.1c-0.8,0-0.9,1-0.9,1.6V36h-1.3v-2.9c0-0.5,0-1.1-0.7-1.1
			c-0.8,0-0.9,1-0.9,1.6V36H280V31.2z"/>
		<path class="st1" d="M292.3,35.7c-0.5,0.3-1,0.4-1.7,0.4c-1.6,0-2.5-0.9-2.5-2.5c0-1.4,0.7-2.6,2.2-2.6c1.8,0,2.3,1.2,2.3,2.9
			h-3.3c0.1,0.8,0.6,1.2,1.4,1.2c0.6,0,1.1-0.2,1.6-0.5V35.7z M291.4,33.1c0-0.6-0.3-1.1-1-1.1c-0.7,0-1.1,0.5-1.1,1.1H291.4z"/>
		<path class="st1" d="M297.5,35.7c-0.5,0.3-1,0.4-1.7,0.4c-1.6,0-2.5-0.9-2.5-2.5c0-1.4,0.7-2.6,2.2-2.6c1.8,0,2.3,1.2,2.3,2.9
			h-3.3c0.1,0.8,0.6,1.2,1.4,1.2c0.6,0,1.1-0.2,1.6-0.5V35.7z M296.7,33.1c0-0.6-0.3-1.1-1-1.1s-1.1,0.5-1.1,1.1H296.7z"/>
	</g>
	<g class="st0">
		<path class="st1" d="M37.6,9.2c0.4,0.2,0.8,0.4,1.4,0.4c0.8,0,1.5-0.4,1.5-1.3c0-1.3-3-1.4-3-3.2c0-1.1,0.9-1.7,2.1-1.7
			c0.3,0,0.8,0,1.3,0.2l-0.1,0.6C40.5,4,40.1,4,39.6,4c-0.7,0-1.4,0.3-1.4,1.1c0,1.3,3,1.3,3,3.2c0,1.3-1.1,1.9-2.2,1.9
			c-0.6,0-1.1-0.1-1.5-0.3L37.6,9.2z"/>
		<path class="st1" d="M45.6,5.9c-0.3-0.1-0.7-0.2-1-0.2c-1.2,0-1.8,0.8-1.8,2c0,1.1,0.7,2,1.7,2c0.4,0,0.7-0.1,1.1-0.2l0.1,0.6
			c-0.4,0.1-0.8,0.2-1.2,0.2c-1.5,0-2.3-1.2-2.3-2.5c0-1.5,1-2.5,2.4-2.5c0.6,0,1,0.1,1.2,0.2L45.6,5.9z"/>
		<path class="st1" d="M46.6,3h0.6v3.1h0c0.3-0.5,0.8-0.9,1.5-0.9c1.3,0,1.6,0.9,1.6,2v2.9h-0.6V7.2c0-0.8-0.2-1.5-1.1-1.5
			c-1.1,0-1.4,1-1.4,1.8v2.6h-0.6V3z"/>
		<path class="st1" d="M56.8,10.1h-0.7l-1.3-4.1h0l-1.3,4.1h-0.7l-1.5-4.8h0.6l1.3,4.1h0l1.3-4.1h0.7l1.3,4.1h0l1.3-4.1h0.6
			L56.8,10.1z"/>
		<path class="st1" d="M62.4,9.9c-0.4,0.2-1,0.3-1.4,0.3c-1.6,0-2.2-1.1-2.2-2.5c0-1.5,0.8-2.5,2-2.5c1.4,0,1.9,1.1,1.9,2.4v0.3
			h-3.3c0,1,0.5,1.8,1.6,1.8c0.4,0,1.1-0.2,1.3-0.4V9.9z M62.1,7.3c0-0.8-0.3-1.7-1.2-1.7c-0.9,0-1.4,0.9-1.4,1.7H62.1z"/>
		<path class="st1" d="M64.4,4h-0.6V3.2h0.6V4z M63.9,5.3h0.6v4.8h-0.6V5.3z"/>
		<path class="st1" d="M65.5,9.6l2.9-3.8h-2.8V5.3h3.5v0.5l-2.9,3.8h2.9v0.5h-3.6V9.6z"/>
		<path class="st1" d="M73.3,9.9c-0.4,0.2-1,0.3-1.4,0.3c-1.6,0-2.2-1.1-2.2-2.5c0-1.5,0.8-2.5,2-2.5c1.4,0,1.9,1.1,1.9,2.4v0.3
			h-3.3c0,1,0.5,1.8,1.6,1.8c0.4,0,1.1-0.2,1.3-0.4V9.9z M73,7.3c0-0.8-0.3-1.7-1.2-1.7c-0.9,0-1.4,0.9-1.4,1.7H73z"/>
		<path class="st1" d="M74.8,6.4c0-0.5,0-0.7,0-1.1h0.6v0.9h0c0.2-0.5,0.6-1,1.2-1c0.1,0,0.3,0,0.4,0.1v0.6c-0.1,0-0.3-0.1-0.4-0.1
			c-0.9,0-1.2,1.1-1.2,1.9v2.4h-0.6V6.4z"/>
		<path class="st1" d="M78.5,4h-0.6V3.2h0.6V4z M77.9,5.3h0.6v4.8h-0.6V5.3z"/>
		<path class="st1" d="M79.7,9.4c0.4,0.2,0.8,0.3,1.3,0.3c0.6,0,1.1-0.3,1.1-0.9c0-1.1-2.3-1-2.3-2.4c0-1,0.8-1.3,1.6-1.3
			c0.3,0,0.8,0.1,1.2,0.2l-0.1,0.5c-0.3-0.1-0.7-0.2-1.1-0.2c-0.6,0-1,0.2-1,0.8c0,0.9,2.4,0.8,2.4,2.4c0,1-1,1.4-1.7,1.4
			c-0.5,0-0.9-0.1-1.3-0.2L79.7,9.4z"/>
		<path class="st1" d="M86.8,5.9c-0.3-0.1-0.7-0.2-1-0.2c-1.2,0-1.8,0.8-1.8,2c0,1.1,0.7,2,1.7,2c0.4,0,0.7-0.1,1.1-0.2l0.1,0.6
			c-0.4,0.1-0.8,0.2-1.2,0.2c-1.5,0-2.3-1.2-2.3-2.5c0-1.5,1-2.5,2.4-2.5c0.6,0,1,0.1,1.2,0.2L86.8,5.9z"/>
		<path class="st1" d="M87.9,3h0.6v3.1h0c0.3-0.5,0.8-0.9,1.5-0.9c1.3,0,1.6,0.9,1.6,2v2.9H91V7.2c0-0.8-0.2-1.5-1.1-1.5
			c-1.1,0-1.4,1-1.4,1.8v2.6h-0.6V3z"/>
		<path class="st1" d="M96.3,9.9c-0.4,0.2-1,0.3-1.4,0.3c-1.6,0-2.2-1.1-2.2-2.5c0-1.5,0.8-2.5,2-2.5c1.4,0,1.9,1.1,1.9,2.4v0.3
			h-3.3c0,1,0.5,1.8,1.6,1.8c0.4,0,1.1-0.2,1.3-0.4V9.9z M96,7.3c0-0.8-0.3-1.7-1.2-1.7c-0.9,0-1.4,0.9-1.4,1.7H96z"/>
		<path class="st1" d="M100.5,3.5h3.2v0.6h-2.6v2.3h2.4V7h-2.4v2.5h2.7v0.6h-3.3V3.5z"/>
		<path class="st1" d="M105.7,4h-0.6V3.2h0.6V4z M105.1,5.3h0.6v4.8h-0.6V5.3z"/>
		<path class="st1" d="M111,10.1h-0.6V9.3h0c-0.3,0.6-0.8,0.9-1.5,0.9c-1.3,0-2-1.1-2-2.5c0-1.5,0.6-2.5,2-2.5
			c0.9,0,1.4,0.7,1.5,0.9h0V3h0.6V10.1z M109,9.7c1.1,0,1.4-1.1,1.4-2s-0.4-2-1.4-2c-1.1,0-1.4,1.1-1.4,2S107.9,9.7,109,9.7z"/>
		<path class="st1" d="M116.2,9.7c0,1.3-0.6,2.4-2.2,2.4c-0.6,0-1.2-0.2-1.4-0.3l0-0.6c0.4,0.2,0.9,0.3,1.4,0.3
			c1.5,0,1.7-1.1,1.7-2.5h0c-0.3,0.7-0.8,0.9-1.5,0.9c-1.5,0-2-1.3-2-2.4c0-1.5,0.6-2.5,2-2.5c0.6,0,1.1,0.1,1.5,0.7h0V5.3h0.6V9.7z
			 M114.2,9.6c1.1,0,1.5-1,1.5-1.9c0-1.2-0.3-2-1.4-2c-1.1,0-1.4,1.1-1.4,2C112.8,8.6,113.2,9.6,114.2,9.6z"/>
		<path class="st1" d="M120.9,9.9c-0.4,0.2-1,0.3-1.4,0.3c-1.6,0-2.2-1.1-2.2-2.5c0-1.5,0.8-2.5,2-2.5c1.4,0,1.9,1.1,1.9,2.4v0.3
			h-3.3c0,1,0.5,1.8,1.6,1.8c0.4,0,1.1-0.2,1.3-0.4V9.9z M120.6,7.3c0-0.8-0.3-1.7-1.2-1.7c-0.9,0-1.4,0.9-1.4,1.7H120.6z"/>
		<path class="st1" d="M122.3,6.4c0-0.4,0-0.7,0-1.1h0.6v0.9h0c0.2-0.4,0.6-1,1.6-1c1.2,0,1.6,0.8,1.6,1.8v3.1h-0.6V7.2
			c0-0.9-0.3-1.5-1.1-1.5c-1.1,0-1.4,1-1.4,1.7v2.7h-0.6V6.4z"/>
		<path class="st1" d="M129.4,5.2c1.6,0,2.2,1.2,2.2,2.5c0,1.3-0.7,2.5-2.2,2.5c-1.6,0-2.2-1.2-2.2-2.5
			C127.2,6.4,127.9,5.2,129.4,5.2z M129.4,9.7c1,0,1.6-0.9,1.6-2s-0.6-2-1.6-2c-1,0-1.6,0.9-1.6,2S128.4,9.7,129.4,9.7z"/>
		<path class="st1" d="M132.4,9.4c0.4,0.2,0.8,0.3,1.3,0.3c0.6,0,1.1-0.3,1.1-0.9c0-1.1-2.3-1-2.3-2.4c0-1,0.8-1.3,1.6-1.3
			c0.3,0,0.8,0.1,1.2,0.2l-0.1,0.5c-0.3-0.1-0.7-0.2-1.1-0.2c-0.6,0-1,0.2-1,0.8c0,0.9,2.4,0.8,2.4,2.4c0,1-1,1.4-1.7,1.4
			c-0.5,0-0.9-0.1-1.3-0.2L132.4,9.4z"/>
		<path class="st1" d="M136.1,9.4c0.4,0.2,0.8,0.3,1.3,0.3c0.6,0,1.1-0.3,1.1-0.9c0-1.1-2.3-1-2.3-2.4c0-1,0.8-1.3,1.6-1.3
			c0.3,0,0.8,0.1,1.2,0.2l-0.1,0.5c-0.3-0.1-0.7-0.2-1.1-0.2c-0.6,0-1,0.2-1,0.8c0,0.9,2.4,0.8,2.4,2.4c0,1-1,1.4-1.7,1.4
			c-0.5,0-0.9-0.1-1.3-0.2L136.1,9.4z"/>
		<path class="st1" d="M143.3,9.9c-0.4,0.2-1,0.3-1.4,0.3c-1.6,0-2.2-1.1-2.2-2.5c0-1.5,0.8-2.5,2-2.5c1.4,0,1.9,1.1,1.9,2.4v0.3
			h-3.3c0,1,0.5,1.8,1.6,1.8c0.4,0,1.1-0.2,1.3-0.4V9.9z M143,7.3c0-0.8-0.3-1.7-1.2-1.7c-0.9,0-1.4,0.9-1.4,1.7H143z"/>
		<path class="st1" d="M144.8,6.4c0-0.4,0-0.7,0-1.1h0.6v0.9h0c0.2-0.4,0.6-1,1.6-1c1.2,0,1.6,0.8,1.6,1.8v3.1H148V7.2
			c0-0.9-0.3-1.5-1.1-1.5c-1.1,0-1.4,1-1.4,1.7v2.7h-0.6V6.4z"/>
		<path class="st1" d="M149.7,9.4c0.4,0.2,0.8,0.3,1.3,0.3c0.6,0,1.1-0.3,1.1-0.9c0-1.1-2.3-1-2.3-2.4c0-1,0.8-1.3,1.6-1.3
			c0.3,0,0.8,0.1,1.2,0.2l-0.1,0.5c-0.3-0.1-0.7-0.2-1.1-0.2c-0.6,0-1,0.2-1,0.8c0,0.9,2.4,0.8,2.4,2.4c0,1-1,1.4-1.7,1.4
			c-0.5,0-0.9-0.1-1.3-0.2L149.7,9.4z"/>
		<path class="st1" d="M156.8,5.9c-0.3-0.1-0.7-0.2-1-0.2c-1.2,0-1.8,0.8-1.8,2c0,1.1,0.7,2,1.7,2c0.4,0,0.7-0.1,1.1-0.2l0.1,0.6
			c-0.4,0.1-0.8,0.2-1.2,0.2c-1.5,0-2.3-1.2-2.3-2.5c0-1.5,1-2.5,2.4-2.5c0.6,0,1,0.1,1.2,0.2L156.8,5.9z"/>
		<path class="st1" d="M157.9,3h0.6v3.1h0c0.3-0.5,0.8-0.9,1.5-0.9c1.3,0,1.6,0.9,1.6,2v2.9H161V7.2c0-0.8-0.2-1.5-1.1-1.5
			c-1.1,0-1.4,1-1.4,1.8v2.6h-0.6V3z"/>
		<path class="st1" d="M165.9,9.3L165.9,9.3c-0.3,0.6-1,0.9-1.5,0.9c-1.4,0-1.6-0.9-1.6-1.4c0-1.6,1.7-1.7,3-1.7h0.1V6.9
			c0-0.8-0.3-1.2-1.1-1.2c-0.5,0-1,0.1-1.4,0.4V5.5c0.4-0.2,1-0.3,1.4-0.3c1.2,0,1.7,0.5,1.7,1.8v2.1c0,0.4,0,0.7,0,1h-0.6V9.3z
			 M165.8,7.7h-0.2c-1,0-2.2,0.1-2.2,1.2c0,0.6,0.5,0.9,1,0.9c1.4,0,1.4-1.2,1.4-1.7V7.7z"/>
		<path class="st1" d="M168.2,5.8h-1V5.3h1V4.9c0-1,0-2,1.3-2c0.2,0,0.4,0,0.6,0.1l0,0.5c-0.1-0.1-0.3-0.1-0.5-0.1
			c-0.8,0-0.7,0.9-0.7,1.4v0.4h1.1v0.5h-1.1v4.3h-0.6V5.8z"/>
		<path class="st1" d="M173,5.8h-1.1v3.1c0,0.4,0.2,0.8,0.6,0.8c0.2,0,0.4,0,0.5-0.1l0,0.5c-0.1,0.1-0.4,0.1-0.7,0.1
			c-1.1,0-1.1-0.7-1.1-1.6V5.8h-0.9V5.3h0.9V4.1l0.6-0.2v1.4h1.1V5.8z"/>
	</g>
	<g class="st0">
		<path class="st1" d="M42.3,17.2c-0.4-0.2-1-0.3-1.5-0.3c-1.7,0-2.7,1.2-2.7,2.8c0,1.7,0.9,2.8,2.7,2.8c0.4,0,1.1-0.1,1.5-0.3
			l0,0.6c-0.4,0.2-1.1,0.3-1.5,0.3c-2.1,0-3.3-1.4-3.3-3.4c0-2,1.3-3.4,3.3-3.4c0.4,0,1.2,0.1,1.5,0.2L42.3,17.2z"/>
		<path class="st1" d="M45.9,18.1c1.6,0,2.2,1.2,2.2,2.5c0,1.3-0.7,2.5-2.2,2.5s-2.2-1.2-2.2-2.5C43.6,19.3,44.3,18.1,45.9,18.1z
			 M45.9,22.6c1,0,1.6-0.9,1.6-2c0-1.1-0.6-2-1.6-2c-1,0-1.6,0.9-1.6,2C44.3,21.8,44.8,22.6,45.9,22.6z"/>
		<path class="st1" d="M49.2,19.4c0-0.4,0-0.7,0-1.1h0.6v0.9h0c0.2-0.4,0.6-1,1.6-1c1.2,0,1.6,0.8,1.6,1.8V23h-0.6v-2.9
			c0-0.9-0.3-1.5-1.1-1.5c-1.1,0-1.4,1-1.4,1.7V23h-0.6V19.4z"/>
		<path class="st1" d="M54.9,18.8h-1v-0.5h1v-0.3c0-1,0-2,1.3-2c0.2,0,0.4,0,0.6,0.1l0,0.5c-0.1-0.1-0.3-0.1-0.5-0.1
			c-0.8,0-0.7,0.9-0.7,1.4v0.4h1.1v0.5h-1.1V23h-0.6V18.8z"/>
		<path class="st1" d="M60.8,22.9c-0.4,0.2-1,0.3-1.4,0.3c-1.6,0-2.2-1.1-2.2-2.5c0-1.5,0.8-2.5,2-2.5c1.4,0,1.9,1.1,1.9,2.4v0.3
			h-3.3c0,1,0.5,1.8,1.6,1.8c0.4,0,1.1-0.2,1.3-0.4V22.9z M60.5,20.3c0-0.8-0.3-1.7-1.2-1.7c-0.9,0-1.4,0.9-1.4,1.7H60.5z
			 M59.5,16.4h0.7l-1.2,1.4h-0.4L59.5,16.4z"/>
		<path class="st1" d="M66.1,23h-0.6v-0.8h0c-0.3,0.6-0.8,0.9-1.5,0.9c-1.3,0-2-1.1-2-2.5c0-1.5,0.6-2.5,2-2.5
			c0.9,0,1.4,0.7,1.5,0.9h0V16h0.6V23z M64.1,22.6c1.1,0,1.4-1.1,1.4-2s-0.4-2-1.4-2c-1.1,0-1.4,1.1-1.4,2S63,22.6,64.1,22.6z"/>
		<path class="st1" d="M70.7,22.9c-0.4,0.2-1,0.3-1.4,0.3c-1.6,0-2.2-1.1-2.2-2.5c0-1.5,0.8-2.5,2-2.5c1.4,0,1.9,1.1,1.9,2.4v0.3
			h-3.3c0,1,0.5,1.8,1.6,1.8c0.4,0,1.1-0.2,1.3-0.4V22.9z M70.4,20.3c0-0.8-0.3-1.7-1.2-1.7c-0.9,0-1.4,0.9-1.4,1.7H70.4z
			 M69.5,16.4h0.7L69,17.7h-0.4L69.5,16.4z"/>
		<path class="st1" d="M72.2,19.3c0-0.5,0-0.7,0-1.1h0.6v0.9h0c0.2-0.5,0.6-1,1.2-1c0.1,0,0.3,0,0.4,0.1v0.6c-0.1,0-0.3-0.1-0.4-0.1
			c-0.9,0-1.2,1.1-1.2,1.9V23h-0.6V19.3z"/>
		<path class="st1" d="M78.1,22.3L78.1,22.3c-0.3,0.6-0.9,0.9-1.5,0.9c-1.4,0-1.6-0.9-1.6-1.4c0-1.6,1.7-1.7,3-1.7h0.1v-0.2
			c0-0.8-0.3-1.2-1.1-1.2c-0.5,0-1,0.1-1.4,0.4v-0.6c0.4-0.2,1-0.3,1.4-0.3c1.2,0,1.7,0.5,1.7,1.8V22c0,0.4,0,0.7,0,1h-0.6V22.3z
			 M78.1,20.6h-0.2c-1,0-2.2,0.1-2.2,1.2c0,0.6,0.5,0.9,1,0.9c1.4,0,1.4-1.2,1.4-1.7V20.6z"/>
		<path class="st1" d="M82.1,18.8H81v3.1c0,0.4,0.2,0.8,0.6,0.8c0.2,0,0.4,0,0.5-0.1l0,0.5c-0.1,0.1-0.4,0.1-0.7,0.1
			c-1.1,0-1.1-0.7-1.1-1.6v-2.8h-0.9v-0.5h0.9v-1.2l0.6-0.2v1.4h1.1V18.8z"/>
		<path class="st1" d="M83.8,17h-0.6v-0.8h0.6V17z M83.2,18.2h0.6V23h-0.6V18.2z"/>
		<path class="st1" d="M87.1,18.1c1.6,0,2.2,1.2,2.2,2.5c0,1.3-0.7,2.5-2.2,2.5s-2.2-1.2-2.2-2.5C84.9,19.3,85.6,18.1,87.1,18.1z
			 M87.1,22.6c1,0,1.6-0.9,1.6-2c0-1.1-0.6-2-1.6-2c-1,0-1.6,0.9-1.6,2C85.6,21.8,86.1,22.6,87.1,22.6z"/>
		<path class="st1" d="M90.5,19.4c0-0.4,0-0.7,0-1.1H91v0.9h0c0.2-0.4,0.6-1,1.6-1c1.2,0,1.6,0.8,1.6,1.8V23h-0.6v-2.9
			c0-0.9-0.3-1.5-1.1-1.5c-1.1,0-1.4,1-1.4,1.7V23h-0.6V19.4z"/>
		<path class="st1" d="M98,22.3c0.4,0.2,0.8,0.3,1.3,0.3c0.6,0,1.1-0.3,1.1-0.9c0-1.1-2.3-1-2.3-2.4c0-1,0.8-1.3,1.6-1.3
			c0.3,0,0.8,0.1,1.2,0.2l-0.1,0.5c-0.3-0.1-0.7-0.2-1.1-0.2c-0.6,0-1,0.2-1,0.8c0,0.9,2.4,0.8,2.4,2.4c0,1-1,1.4-1.7,1.4
			c-0.5,0-0.9-0.1-1.3-0.2L98,22.3z"/>
		<path class="st1" d="M105.7,21.9c0,0.4,0,0.7,0,1.1h-0.6v-0.9h0c-0.2,0.4-0.6,1-1.6,1c-1.2,0-1.6-0.8-1.6-1.8v-3.1h0.6v2.9
			c0,0.9,0.3,1.5,1.1,1.5c1.1,0,1.4-0.9,1.4-1.7v-2.7h0.6V21.9z"/>
		<path class="st1" d="M107.8,17h-0.6v-0.8h0.6V17z M107.2,18.2h0.6V23h-0.6V18.2z"/>
		<path class="st1" d="M108.9,22.3c0.4,0.2,0.8,0.3,1.3,0.3c0.6,0,1.1-0.3,1.1-0.9c0-1.1-2.3-1-2.3-2.4c0-1,0.8-1.3,1.6-1.3
			c0.3,0,0.8,0.1,1.2,0.2l-0.1,0.5c-0.3-0.1-0.7-0.2-1.1-0.2c-0.6,0-1,0.2-1,0.8c0,0.9,2.4,0.8,2.4,2.4c0,1-1,1.4-1.7,1.4
			c-0.5,0-0.9-0.1-1.3-0.2L108.9,22.3z"/>
		<path class="st1" d="M112.6,22.3c0.4,0.2,0.8,0.3,1.3,0.3c0.6,0,1.1-0.3,1.1-0.9c0-1.1-2.3-1-2.3-2.4c0-1,0.8-1.3,1.6-1.3
			c0.3,0,0.8,0.1,1.2,0.2l-0.1,0.5c-0.3-0.1-0.7-0.2-1.1-0.2c-0.6,0-1,0.2-1,0.8c0,0.9,2.4,0.8,2.4,2.4c0,1-1,1.4-1.7,1.4
			c-0.5,0-0.9-0.1-1.3-0.2L112.6,22.3z"/>
		<path class="st1" d="M119.8,22.9c-0.4,0.2-1,0.3-1.4,0.3c-1.6,0-2.2-1.1-2.2-2.5c0-1.5,0.8-2.5,2-2.5c1.4,0,1.9,1.1,1.9,2.4v0.3
			h-3.3c0,1,0.5,1.8,1.6,1.8c0.4,0,1.1-0.2,1.3-0.4V22.9z M119.5,20.3c0-0.8-0.3-1.7-1.2-1.7c-0.9,0-1.4,0.9-1.4,1.7H119.5z"/>
	</g>
	<g class="st0">
		<path class="st1" d="M42.3,30.2c-0.4-0.2-1-0.3-1.5-0.3c-1.7,0-2.7,1.2-2.7,2.8c0,1.7,0.9,2.8,2.7,2.8c0.4,0,1.1-0.1,1.5-0.3
			l0,0.6c-0.4,0.2-1.1,0.3-1.5,0.3c-2.1,0-3.3-1.4-3.3-3.4c0-2,1.3-3.4,3.3-3.4c0.4,0,1.2,0.1,1.5,0.2L42.3,30.2z"/>
		<path class="st1" d="M45.9,31.1c1.6,0,2.2,1.2,2.2,2.5c0,1.3-0.7,2.5-2.2,2.5s-2.2-1.2-2.2-2.5C43.6,32.3,44.3,31.1,45.9,31.1z
			 M45.9,35.6c1,0,1.6-0.9,1.6-2s-0.6-2-1.6-2c-1,0-1.6,0.9-1.6,2S44.8,35.6,45.9,35.6z"/>
		<path class="st1" d="M49.2,32.3c0-0.4,0-0.7,0-1.1h0.6v0.9h0c0.2-0.4,0.6-1,1.6-1c1.2,0,1.6,0.8,1.6,1.8V36h-0.6v-2.9
			c0-0.9-0.3-1.5-1.1-1.5c-1.1,0-1.4,1-1.4,1.7V36h-0.6V32.3z"/>
		<path class="st1" d="M54.9,31.7h-1v-0.5h1v-0.3c0-1,0-2,1.3-2c0.2,0,0.4,0,0.6,0.1l0,0.5c-0.1-0.1-0.3-0.1-0.5-0.1
			c-0.8,0-0.7,0.9-0.7,1.4v0.4h1.1v0.5h-1.1V36h-0.6V31.7z"/>
		<path class="st1" d="M60.8,35.9c-0.4,0.2-1,0.3-1.4,0.3c-1.6,0-2.2-1.1-2.2-2.5c0-1.5,0.8-2.5,2-2.5c1.4,0,1.9,1.1,1.9,2.4v0.3
			h-3.3c0,1,0.5,1.8,1.6,1.8c0.4,0,1.1-0.2,1.3-0.4V35.9z M60.5,33.3c0-0.8-0.3-1.7-1.2-1.7c-0.9,0-1.4,0.9-1.4,1.7H60.5z"/>
		<path class="st1" d="M66.1,36h-0.6v-0.8h0c-0.3,0.6-0.8,0.9-1.5,0.9c-1.3,0-2-1.1-2-2.5c0-1.5,0.6-2.5,2-2.5
			c0.9,0,1.4,0.7,1.5,0.9h0V29h0.6V36z M64.1,35.6c1.1,0,1.4-1.1,1.4-2s-0.4-2-1.4-2c-1.1,0-1.4,1.1-1.4,2
			C62.7,34.5,63,35.6,64.1,35.6z"/>
		<path class="st1" d="M70.7,35.9c-0.4,0.2-1,0.3-1.4,0.3c-1.6,0-2.2-1.1-2.2-2.5c0-1.5,0.8-2.5,2-2.5c1.4,0,1.9,1.1,1.9,2.4v0.3
			h-3.3c0,1,0.5,1.8,1.6,1.8c0.4,0,1.1-0.2,1.3-0.4V35.9z M70.4,33.3c0-0.8-0.3-1.7-1.2-1.7c-0.9,0-1.4,0.9-1.4,1.7H70.4z"/>
		<path class="st1" d="M72.2,32.3c0-0.5,0-0.7,0-1.1h0.6v0.9h0c0.2-0.5,0.6-1,1.2-1c0.1,0,0.3,0,0.4,0.1v0.6c-0.1,0-0.3-0.1-0.4-0.1
			c-0.9,0-1.2,1.1-1.2,1.9V36h-0.6V32.3z"/>
		<path class="st1" d="M78.1,35.2L78.1,35.2c-0.3,0.6-0.9,0.9-1.5,0.9c-1.4,0-1.6-0.9-1.6-1.4c0-1.6,1.7-1.7,3-1.7h0.1v-0.2
			c0-0.8-0.3-1.2-1.1-1.2c-0.5,0-1,0.1-1.4,0.4v-0.6c0.4-0.2,1-0.3,1.4-0.3c1.2,0,1.7,0.5,1.7,1.8V35c0,0.4,0,0.7,0,1h-0.6V35.2z
			 M78.1,33.6h-0.2c-1,0-2.2,0.1-2.2,1.2c0,0.6,0.5,0.9,1,0.9c1.4,0,1.4-1.2,1.4-1.7V33.6z"/>
		<path class="st1" d="M79.6,35.5l2.9-3.8h-2.8v-0.5h3.5v0.5l-2.9,3.8h2.9V36h-3.6V35.5z"/>
		<path class="st1" d="M84.8,29.9h-0.6v-0.8h0.6V29.9z M84.2,31.2h0.6V36h-0.6V31.2z"/>
		<path class="st1" d="M88.2,31.1c1.6,0,2.2,1.2,2.2,2.5c0,1.3-0.7,2.5-2.2,2.5s-2.2-1.2-2.2-2.5C85.9,32.3,86.6,31.1,88.2,31.1z
			 M88.2,35.6c1,0,1.6-0.9,1.6-2s-0.6-2-1.6-2c-1,0-1.6,0.9-1.6,2S87.2,35.6,88.2,35.6z"/>
		<path class="st1" d="M91.5,32.3c0-0.4,0-0.7,0-1.1h0.6v0.9h0c0.2-0.4,0.6-1,1.6-1c1.2,0,1.6,0.8,1.6,1.8V36h-0.6v-2.9
			c0-0.9-0.3-1.5-1.1-1.5c-1.1,0-1.4,1-1.4,1.7V36h-0.6V32.3z"/>
		<path class="st1" d="M100,35.9c-0.4,0.2-1,0.3-1.4,0.3c-1.6,0-2.2-1.1-2.2-2.5c0-1.5,0.8-2.5,2-2.5c1.4,0,1.9,1.1,1.9,2.4v0.3
			h-3.3c0,1,0.5,1.8,1.6,1.8c0.4,0,1.1-0.2,1.3-0.4V35.9z M99.7,33.3c0-0.8-0.3-1.7-1.2-1.7c-0.9,0-1.4,0.9-1.4,1.7H99.7z"/>
		<path class="st1" d="M104,35.2c0.4,0.2,0.8,0.4,1.4,0.4c0.8,0,1.5-0.4,1.5-1.3c0-1.3-3-1.4-3-3.2c0-1.1,0.9-1.7,2.1-1.7
			c0.3,0,0.8,0,1.3,0.2l-0.1,0.6c-0.3-0.2-0.8-0.2-1.2-0.2c-0.7,0-1.4,0.3-1.4,1.1c0,1.3,3,1.3,3,3.2c0,1.3-1.1,1.9-2.2,1.9
			c-0.6,0-1.1-0.1-1.5-0.3L104,35.2z"/>
		<path class="st1" d="M110.4,36h-0.7l-1.6-4.8h0.6l1.3,4.1h0l1.4-4.1h0.6L110.4,36z"/>
		<path class="st1" d="M113.5,29.9H113v-0.8h0.6V29.9z M113,31.2h0.6V36H113V31.2z"/>
		<path class="st1" d="M114.6,35.5l2.9-3.8h-2.8v-0.5h3.5v0.5l-2.9,3.8h2.9V36h-3.6V35.5z"/>
		<path class="st1" d="M118.8,35.5l2.9-3.8h-2.8v-0.5h3.5v0.5l-2.9,3.8h2.9V36h-3.6V35.5z"/>
		<path class="st1" d="M126.6,35.9c-0.4,0.2-1,0.3-1.4,0.3c-1.6,0-2.2-1.1-2.2-2.5c0-1.5,0.8-2.5,2-2.5c1.4,0,1.9,1.1,1.9,2.4v0.3
			h-3.3c0,1,0.5,1.8,1.6,1.8c0.4,0,1.1-0.2,1.3-0.4V35.9z M126.3,33.3c0-0.8-0.3-1.7-1.2-1.7c-0.9,0-1.4,0.9-1.4,1.7H126.3z"/>
		<path class="st1" d="M128.1,32.3c0-0.5,0-0.7,0-1.1h0.6v0.9h0c0.2-0.5,0.6-1,1.2-1c0.1,0,0.3,0,0.4,0.1v0.6
			c-0.1,0-0.3-0.1-0.4-0.1c-0.9,0-1.2,1.1-1.2,1.9V36h-0.6V32.3z"/>
		<path class="st1" d="M134,35.2L134,35.2c-0.3,0.6-0.9,0.9-1.5,0.9c-1.4,0-1.6-0.9-1.6-1.4c0-1.6,1.7-1.7,3-1.7h0.1v-0.2
			c0-0.8-0.3-1.2-1.1-1.2c-0.5,0-1,0.1-1.4,0.4v-0.6c0.4-0.2,1-0.3,1.4-0.3c1.2,0,1.7,0.5,1.7,1.8V35c0,0.4,0,0.7,0,1H134V35.2z
			 M133.9,33.6h-0.2c-1,0-2.2,0.1-2.2,1.2c0,0.6,0.5,0.9,1,0.9c1.4,0,1.4-1.2,1.4-1.7V33.6z"/>
	</g>
	<g class="st0">
		<path class="st1" d="M42.3,43.1c-0.4-0.2-1-0.3-1.5-0.3c-1.7,0-2.7,1.2-2.7,2.8c0,1.7,0.9,2.8,2.7,2.8c0.4,0,1.1-0.1,1.5-0.3
			l0,0.6c-0.4,0.2-1.1,0.3-1.5,0.3c-2.1,0-3.3-1.4-3.3-3.4c0-2,1.3-3.4,3.3-3.4c0.4,0,1.2,0.1,1.5,0.2L42.3,43.1z"/>
		<path class="st1" d="M45.9,44.1c1.6,0,2.2,1.2,2.2,2.5c0,1.3-0.7,2.5-2.2,2.5s-2.2-1.2-2.2-2.5C43.6,45.3,44.3,44.1,45.9,44.1z
			 M45.9,48.6c1,0,1.6-0.9,1.6-2s-0.6-2-1.6-2c-1,0-1.6,0.9-1.6,2S44.8,48.6,45.9,48.6z"/>
		<path class="st1" d="M49.2,45.3c0-0.4,0-0.7,0-1.1h0.6V45h0c0.2-0.4,0.6-1,1.6-1c1.2,0,1.6,0.8,1.6,1.8V49h-0.6v-2.9
			c0-0.9-0.3-1.5-1.1-1.5c-1.1,0-1.4,1-1.4,1.7V49h-0.6V45.3z"/>
		<path class="st1" d="M54.9,44.7h-1v-0.5h1v-0.3c0-1,0-2,1.3-2c0.2,0,0.4,0,0.6,0.1l0,0.5c-0.1-0.1-0.3-0.1-0.5-0.1
			c-0.8,0-0.7,0.9-0.7,1.4v0.4h1.1v0.5h-1.1V49h-0.6V44.7z"/>
		<path class="st1" d="M60.8,48.8c-0.4,0.2-1,0.3-1.4,0.3c-1.6,0-2.2-1.1-2.2-2.5c0-1.5,0.8-2.5,2-2.5c1.4,0,1.9,1.1,1.9,2.4v0.3
			h-3.3c0,1,0.5,1.8,1.6,1.8c0.4,0,1.1-0.2,1.3-0.4V48.8z M60.5,46.2c0-0.8-0.3-1.7-1.2-1.7c-0.9,0-1.4,0.9-1.4,1.7H60.5z"/>
		<path class="st1" d="M66.1,49h-0.6v-0.8h0c-0.3,0.6-0.8,0.9-1.5,0.9c-1.3,0-2-1.1-2-2.5c0-1.5,0.6-2.5,2-2.5
			c0.9,0,1.4,0.7,1.5,0.9h0v-3.1h0.6V49z M64.1,48.6c1.1,0,1.4-1.1,1.4-2s-0.4-2-1.4-2c-1.1,0-1.4,1.1-1.4,2S63,48.6,64.1,48.6z"/>
		<path class="st1" d="M70.7,48.8c-0.4,0.2-1,0.3-1.4,0.3c-1.6,0-2.2-1.1-2.2-2.5c0-1.5,0.8-2.5,2-2.5c1.4,0,1.9,1.1,1.9,2.4v0.3
			h-3.3c0,1,0.5,1.8,1.6,1.8c0.4,0,1.1-0.2,1.3-0.4V48.8z M70.4,46.2c0-0.8-0.3-1.7-1.2-1.7c-0.9,0-1.4,0.9-1.4,1.7H70.4z"/>
		<path class="st1" d="M72.2,45.3c0-0.5,0-0.7,0-1.1h0.6v0.9h0c0.2-0.5,0.6-1,1.2-1c0.1,0,0.3,0,0.4,0.1v0.6c-0.1,0-0.3-0.1-0.4-0.1
			c-0.9,0-1.2,1.1-1.2,1.9V49h-0.6V45.3z"/>
		<path class="st1" d="M78.1,48.2L78.1,48.2c-0.3,0.6-0.9,0.9-1.5,0.9c-1.4,0-1.6-0.9-1.6-1.4c0-1.6,1.7-1.7,3-1.7h0.1v-0.2
			c0-0.8-0.3-1.2-1.1-1.2c-0.5,0-1,0.1-1.4,0.4v-0.6c0.4-0.2,1-0.3,1.4-0.3c1.2,0,1.7,0.5,1.7,1.8V48c0,0.4,0,0.7,0,1h-0.6V48.2z
			 M78.1,46.6h-0.2c-1,0-2.2,0.1-2.2,1.2c0,0.6,0.5,0.9,1,0.9c1.4,0,1.4-1.2,1.4-1.7V46.6z"/>
		<path class="st1" d="M79.6,48.5l2.9-3.8h-2.8v-0.5h3.5v0.5l-2.9,3.8h2.9V49h-3.6V48.5z"/>
		<path class="st1" d="M84.8,42.9h-0.6v-0.8h0.6V42.9z M84.2,44.2h0.6V49h-0.6V44.2z"/>
		<path class="st1" d="M90.1,47.8c0,0.4,0,0.7,0,1.1h-0.6v-0.9h0c-0.2,0.4-0.6,1-1.6,1c-1.2,0-1.6-0.8-1.6-1.8v-3.1h0.6v2.9
			c0,0.9,0.3,1.5,1.1,1.5c1.1,0,1.4-0.9,1.4-1.7v-2.7h0.6V47.8z"/>
		<path class="st1" d="M91.5,45.3c0-0.4,0-0.7,0-1.1h0.6V45h0c0.2-0.4,0.6-1,1.6-1c1.2,0,1.6,0.8,1.6,1.8V49h-0.6v-2.9
			c0-0.9-0.3-1.5-1.1-1.5c-1.1,0-1.4,1-1.4,1.7V49h-0.6V45.3z"/>
		<path class="st1" d="M99,48.3c0.4,0.2,0.8,0.3,1.3,0.3c0.6,0,1.1-0.3,1.1-0.9c0-1.1-2.3-1-2.3-2.4c0-1,0.8-1.3,1.6-1.3
			c0.3,0,0.8,0.1,1.2,0.2l-0.1,0.5c-0.3-0.1-0.7-0.2-1.1-0.2c-0.6,0-1,0.2-1,0.8c0,0.9,2.4,0.8,2.4,2.4c0,1-1,1.4-1.7,1.4
			c-0.5,0-0.9-0.1-1.3-0.2L99,48.3z"/>
		<path class="st1" d="M104.7,49H104l-1.6-4.8h0.6l1.3,4.1h0l1.4-4.1h0.6L104.7,49z"/>
		<path class="st1" d="M107.8,42.9h-0.6v-0.8h0.6V42.9z M107.2,44.2h0.6V49h-0.6V44.2z"/>
		<path class="st1" d="M108.9,48.5l2.9-3.8H109v-0.5h3.5v0.5l-2.9,3.8h2.9V49h-3.6V48.5z"/>
		<path class="st1" d="M113.5,45.3c0-0.5,0-0.7,0-1.1h0.6v0.9h0c0.2-0.5,0.6-1,1.2-1c0.1,0,0.3,0,0.4,0.1v0.6
			c-0.1,0-0.3-0.1-0.4-0.1c-0.9,0-1.2,1.1-1.2,1.9V49h-0.6V45.3z"/>
		<path class="st1" d="M119.4,48.2L119.4,48.2c-0.3,0.6-1,0.9-1.5,0.9c-1.4,0-1.6-0.9-1.6-1.4c0-1.6,1.7-1.7,3-1.7h0.1v-0.2
			c0-0.8-0.3-1.2-1.1-1.2c-0.5,0-1,0.1-1.4,0.4v-0.6c0.4-0.2,1-0.3,1.4-0.3c1.2,0,1.7,0.5,1.7,1.8V48c0,0.4,0,0.7,0,1h-0.6V48.2z
			 M119.3,46.6h-0.2c-1,0-2.2,0.1-2.2,1.2c0,0.6,0.5,0.9,1,0.9c1.4,0,1.4-1.2,1.4-1.7V46.6z"/>
	</g>
	<g>
		<g>
			<path class="st2" d="M26.9,3.2c0,0-5-2.2-13.3-2.2h0C5.2,1.1,0.3,3.2,0.3,3.2s-0.4,9.6,1.4,15.1C5,27.9,13.6,30.6,13.6,30.6h0h0
				c0,0,8.5-2.7,11.9-12.3C27.3,12.9,26.9,3.2,26.9,3.2z"/>
		</g>
		<polygon class="st1" points="22.4,11.5 22.4,16.9 16.2,16.9 16.2,23.1 10.9,23.1 10.9,16.9 4.7,16.9 4.7,11.5 10.9,11.5 10.9,5.3 
			16.2,5.3 16.2,11.5 		"/>
	</g>
</g>
</svg>
